<?xml version="1.0" encoding="utf-8"?>
<!-- Generator: Adobe Illustrator 28.0.0, SVG Export Plug-In . SVG Version: 6.00 Build 0)  -->
<svg version="1.1" id="Camada_1" xmlns="http://www.w3.org/2000/svg" xmlns:xlink="http://www.w3.org/1999/xlink" x="0px" y="0px"
	 viewBox="0 0 46.5 55.5" style="enable-background:new 0 0 46.5 55.5;" xml:space="preserve">
<style type="text/css">
	.st0{fill:#0069FF;}
</style>
<g>
	<path class="st0" d="M-80.9-10.5c4.8,0,10.1-1.3,15.3-3.7c12.2-5.7,19.3-15.5,16.1-22.4c-3.2-6.9-15.3-7.8-27.5-2.1
		c-4,1.9-7.6,4.3-10.5,7c-0.6,0.6-0.6,1.6-0.1,2.2c0.6,0.6,1.6,0.6,2.2,0.1c2.6-2.5,6-4.7,9.7-6.4c10.3-4.8,21-4.5,23.4,0.6
		S-56.5-21.8-66.8-17c-5.2,2.4-10.6,3.6-15.2,3.4c-4.2-0.2-7.1-1.6-8.2-4c-1.2-2.5,0-5.3,1.1-7.2c0.4-0.7,0.2-1.7-0.5-2.1
		c-0.7-0.4-1.7-0.2-2.1,0.5c-2.1,3.6-2.6,7.2-1.2,10.1c1.6,3.4,5.5,5.5,10.9,5.8C-81.7-10.5-81.3-10.5-80.9-10.5z"/>
</g>
<g>
	<path d="M-18.2,131.2c-0.1,0.8-0.5,1.5-1,2c-0.5,0.5-1.2,0.7-2.1,0.7c-0.7,0-1.3-0.2-1.9-0.6c-0.5-0.4-0.9-0.9-1.2-1.7
		c-0.3-0.7-0.4-1.6-0.4-2.7v0c0-1,0.1-1.9,0.4-2.6c0.3-0.7,0.7-1.3,1.2-1.7c0.5-0.4,1.1-0.6,1.8-0.6c0.9,0,1.6,0.3,2.2,0.8
		c0.5,0.5,0.9,1.2,1,1.9l0,0.1h4.1v-0.1c-0.1-1.2-0.4-2.2-1-3.1c-0.6-0.9-1.4-1.7-2.5-2.2s-2.3-0.8-3.8-0.8c-1.6,0-3,0.3-4.2,1
		s-2.1,1.6-2.7,2.9c-0.7,1.2-1,2.7-1,4.4v0c0,1.7,0.3,3.2,1,4.4s1.6,2.2,2.7,2.9c1.2,0.7,2.6,1,4.2,1c1.4,0,2.7-0.3,3.7-0.8
		c1.1-0.5,1.9-1.3,2.5-2.2c0.6-0.9,0.9-2,1-3.1v-0.1h-4.1L-18.2,131.2z"/>
	<path d="M-3.9,120.7c-0.9,0-1.7,0.3-2.3,0.8c-0.6,0.5-1.1,1.3-1.3,2.3h-0.1V121H-12v16h4.4v-9c0-0.8,0.1-1.4,0.4-2
		c0.3-0.5,0.7-0.9,1.2-1.2c0.5-0.3,1.1-0.4,1.8-0.4c0.3,0,0.6,0,0.9,0.1c0.3,0,0.5,0.1,0.7,0.2v-3.9c-0.2,0-0.3-0.1-0.6-0.1
		C-3.5,120.7-3.7,120.7-3.9,120.7z"/>
	<path d="M9.7,121.7c-1.1-0.7-2.5-1-4.1-1c-1.6,0-2.9,0.3-4.1,1s-2,1.7-2.7,2.9s-1,2.7-1,4.4v0c0,1.7,0.3,3.2,1,4.4
		c0.6,1.2,1.5,2.2,2.7,2.9c1.2,0.7,2.6,1,4.2,1c1.2,0,2.2-0.1,3-0.4s1.6-0.7,2.2-1.2c0.6-0.5,1.1-1.1,1.4-1.6
		c0.3-0.6,0.6-1.2,0.7-1.8l0.1-0.2h-4l0,0.1c-0.1,0.3-0.3,0.6-0.6,0.9c-0.3,0.3-0.6,0.5-1.1,0.7s-1,0.3-1.6,0.3
		c-0.8,0-1.4-0.2-2-0.5c-0.6-0.3-1-0.8-1.3-1.4c-0.3-0.6-0.4-1.3-0.4-2.1h11v-1.4c0-1.6-0.3-3-0.9-4.2
		C11.8,123.3,10.9,122.3,9.7,121.7z M4,124.4c0.5-0.3,1.1-0.5,1.8-0.5s1.3,0.2,1.8,0.5c0.5,0.3,0.9,0.8,1.2,1.4
		c0.2,0.4,0.3,0.9,0.4,1.5H2.4c0.1-0.5,0.2-1,0.4-1.4C3,125.2,3.4,124.7,4,124.4z"/>
	<path d="M26.3,121.3c-1-0.4-2.2-0.7-3.6-0.7c-1.4,0-2.6,0.2-3.6,0.7s-1.8,1-2.4,1.8c-0.6,0.8-0.9,1.6-1,2.6l0,0.2h4l0-0.1
		c0.1-0.5,0.4-0.9,0.9-1.3c0.5-0.3,1.1-0.5,1.9-0.5c0.9,0,1.5,0.2,2,0.6c0.4,0.4,0.7,1,0.7,1.7v1l-4,0.2c-1.3,0.1-2.4,0.3-3.4,0.7
		c-0.9,0.4-1.6,0.9-2.1,1.6c-0.5,0.7-0.7,1.5-0.7,2.5v0c0,0.9,0.2,1.8,0.7,2.5c0.4,0.7,1.1,1.3,1.9,1.7c0.8,0.4,1.8,0.6,2.8,0.6
		c0.7,0,1.3-0.1,1.9-0.3c0.6-0.2,1.1-0.5,1.6-0.9c0.5-0.4,0.9-0.9,1.2-1.4h0.1v2.4h4.4v-11c0-1.1-0.3-2-0.8-2.8
		C28.1,122.4,27.3,121.8,26.3,121.3z M24.7,132.7c-0.3,0.4-0.7,0.8-1.2,1c-0.5,0.2-1.1,0.4-1.7,0.4c-0.8,0-1.4-0.2-1.8-0.5
		s-0.7-0.8-0.7-1.4v0c0-0.6,0.2-1,0.7-1.4c0.4-0.3,1.1-0.5,1.9-0.6l3.3-0.2v1.2C25.2,131.7,25,132.2,24.7,132.7z"/>
	<path d="M37.9,117.1h-4.4v3.9h-2.2v3.3h2.2v8.2c0,1.7,0.4,2.9,1.3,3.7c0.9,0.8,2.2,1.1,3.9,1.1c0.5,0,0.9,0,1.2-0.1
		c0.4,0,0.6-0.1,0.9-0.1V134c-0.1,0-0.3,0-0.4,0.1c-0.1,0-0.3,0-0.5,0c-0.7,0-1.1-0.2-1.5-0.4c-0.3-0.3-0.5-0.8-0.5-1.6v-7.8h2.9
		V121h-2.9L37.9,117.1L37.9,117.1z"/>
	<path d="M45.5,114.4c-0.7,0-1.2,0.2-1.7,0.7c-0.4,0.4-0.7,1-0.7,1.6c0,0.6,0.2,1.2,0.7,1.6c0.4,0.4,1,0.7,1.7,0.7s1.2-0.2,1.7-0.7
		c0.4-0.5,0.7-1,0.7-1.6c0-0.6-0.2-1.2-0.7-1.6C46.7,114.6,46.1,114.4,45.5,114.4z"/>
	<rect x="43.3" y="121" width="4.4" height="16"/>
	<polygon points="57.4,133.2 57.3,133.2 53.9,121 49.2,121 54.8,137 59.7,137 65.2,121 60.7,121 	"/>
	<path d="M77.4,121.7c-1.1-0.7-2.5-1-4.1-1c-1.6,0-2.9,0.3-4.1,1c-1.1,0.7-2,1.7-2.7,2.9s-1,2.7-1,4.4v0c0,1.7,0.3,3.2,1,4.4
		s1.5,2.2,2.7,2.9c1.2,0.7,2.6,1,4.2,1c1.1,0,2.1-0.1,3-0.4s1.6-0.7,2.2-1.2c0.6-0.5,1.1-1.1,1.4-1.6c0.4-0.6,0.6-1.2,0.7-1.8
		l0.1-0.2h-4l0,0.1c-0.1,0.3-0.3,0.6-0.6,0.9c-0.3,0.3-0.6,0.5-1.1,0.7s-1,0.3-1.6,0.3c-0.8,0-1.4-0.2-2-0.5s-1-0.8-1.3-1.4
		c-0.3-0.6-0.4-1.3-0.4-2.1h11v-1.4c0-1.6-0.3-3-0.9-4.2C79.4,123.3,78.5,122.3,77.4,121.7z M71.6,124.4c0.5-0.3,1.1-0.5,1.8-0.5
		c0.7,0,1.3,0.2,1.8,0.5c0.5,0.3,0.9,0.8,1.2,1.4c0.2,0.4,0.3,0.9,0.4,1.5H70c0.1-0.5,0.2-1,0.4-1.4
		C70.6,125.2,71.1,124.7,71.6,124.4z"/>
	<path d="M85.5,132.4c-0.7,0-1.2,0.2-1.7,0.7c-0.5,0.5-0.7,1-0.7,1.7c0,0.7,0.2,1.2,0.7,1.7s1.1,0.7,1.7,0.7s1.2-0.2,1.7-0.7
		s0.7-1,0.7-1.7c0-0.7-0.2-1.2-0.7-1.7C86.7,132.7,86.1,132.4,85.5,132.4z"/>
	<path d="M101.5,132.3c-0.2,1-0.7,1.8-1.5,2.3c-0.8,0.6-1.7,0.9-2.9,0.9c-1,0-1.9-0.2-2.6-0.8s-1.4-1.2-1.8-2.2s-0.6-2.1-0.6-3.4v0
		c0-1.3,0.2-2.4,0.6-3.3s1-1.7,1.8-2.2c0.8-0.5,1.6-0.8,2.6-0.8c1.2,0,2.2,0.3,3,1c0.8,0.6,1.2,1.4,1.5,2.3l0,0.1h1.9l0-0.1
		c-0.1-0.9-0.5-1.7-1-2.5c-0.5-0.8-1.3-1.4-2.2-1.8s-2-0.7-3.2-0.7c-1.4,0-2.6,0.3-3.7,1c-1.1,0.7-1.9,1.6-2.5,2.8
		c-0.6,1.2-0.9,2.6-0.9,4.2v0c0,1.6,0.3,3.1,0.9,4.3c0.6,1.2,1.4,2.1,2.5,2.8c1.1,0.7,2.3,1,3.7,1c1.1,0,2.1-0.2,3.1-0.7
		c0.9-0.4,1.6-1,2.2-1.8c0.6-0.8,0.9-1.6,1.1-2.6l0-0.1h-1.9L101.5,132.3z"/>
	<path d="M107.1,116c-0.4,0-0.7,0.1-0.9,0.4s-0.4,0.6-0.4,0.9c0,0.4,0.1,0.7,0.4,0.9s0.6,0.4,0.9,0.4c0.4,0,0.7-0.1,0.9-0.4
		s0.4-0.6,0.4-0.9s-0.1-0.7-0.4-0.9C107.8,116.2,107.5,116,107.1,116z"/>
	<rect x="106.1" y="121.5" width="2" height="15.5"/>
	<path d="M117.5,121.2c-0.9,0-1.8,0.3-2.4,0.8c-0.7,0.6-1.1,1.3-1.4,2.3h-0.1v-2.8h-2V137h2v-9.6c0-0.9,0.1-1.6,0.4-2.3
		s0.7-1.2,1.3-1.5c0.5-0.4,1.2-0.5,1.9-0.5c0.4,0,0.6,0,0.9,0.1c0.3,0,0.4,0.1,0.6,0.2v-1.9c-0.1,0-0.3-0.1-0.5-0.1
		C118,121.2,117.7,121.2,117.5,121.2z"/>
	<path d="M130.6,132.3c-0.2,1-0.7,1.8-1.5,2.3c-0.8,0.6-1.7,0.9-2.9,0.9c-1,0-1.9-0.2-2.6-0.8s-1.4-1.2-1.8-2.2s-0.6-2.1-0.6-3.4v0
		c0-1.3,0.2-2.4,0.6-3.3s1-1.7,1.8-2.2c0.8-0.5,1.6-0.8,2.6-0.8c1.2,0,2.2,0.3,3,1c0.8,0.6,1.2,1.4,1.5,2.3l0,0.1h1.9l0-0.1
		c-0.1-0.9-0.5-1.7-1-2.5c-0.5-0.8-1.3-1.4-2.2-1.8s-2-0.7-3.2-0.7c-1.4,0-2.6,0.3-3.7,1c-1.1,0.7-1.9,1.6-2.5,2.8
		c-0.6,1.2-0.9,2.6-0.9,4.2v0c0,1.6,0.3,3.1,0.9,4.3c0.6,1.2,1.4,2.1,2.5,2.8c1.1,0.7,2.3,1,3.7,1c1.1,0,2.1-0.2,3.1-0.7
		c0.9-0.4,1.6-1,2.2-1.8c0.6-0.8,0.9-1.6,1.1-2.6l0-0.1h-1.9L130.6,132.3z"/>
	<rect x="135.2" y="115.4" width="2" height="21.6"/>
	<path d="M153.6,128.9c0-1.6-0.3-2.9-0.8-4.1s-1.3-2.1-2.4-2.7s-2.2-1-3.6-1c-1.4,0-2.6,0.3-3.6,1c-1,0.7-1.8,1.6-2.4,2.8
		c-0.6,1.2-0.9,2.6-0.9,4.3v0c0,1.6,0.3,3.1,0.9,4.2c0.6,1.2,1.4,2.1,2.4,2.8c1.1,0.7,2.3,1,3.8,1c0.8,0,1.6-0.1,2.3-0.3
		c0.7-0.2,1.4-0.5,1.9-1c0.6-0.4,1-0.9,1.4-1.5s0.6-1.2,0.8-1.8l0-0.1h-1.9l-0.1,0.1c-0.2,0.6-0.4,1.1-0.9,1.5
		c-0.4,0.4-0.9,0.8-1.5,1c-0.6,0.2-1.3,0.4-2,0.4c-1,0-1.9-0.2-2.7-0.7s-1.4-1.1-1.8-2c-0.4-0.8-0.6-1.9-0.6-3.1h11.7V128.9z
		 M142.6,125.6c0.4-0.9,1-1.5,1.7-2s1.6-0.7,2.5-0.7s1.8,0.2,2.5,0.7c0.7,0.5,1.3,1.1,1.7,2c0.3,0.7,0.5,1.6,0.6,2.5H142
		C142,127.2,142.2,126.4,142.6,125.6z"/>
</g>
<path class="st0" d="M45.8,29.7L32,20.4l-2.6-1.7L2.3,0.3C1.3-0.3,0,0.3,0.1,1.5l0.3,32.3l0,3.1c0,0,0,0,0,0l0,2.6l0,0l0,0L0.6,54
	c0,1.3,1.6,1.9,2.5,0.9l15.4-17.6c0.9-1,2.2-1.7,3.5-1.9l23.2-3.2C46.5,32.1,46.9,30.4,45.8,29.7z"/>
</svg>
