<?xml version="1.0" encoding="utf-8"?>
<!-- Generator: Adobe Illustrator 28.1.0, SVG Export Plug-In . SVG Version: 6.00 Build 0)  -->
<svg version="1.1" id="Camada_1" xmlns="http://www.w3.org/2000/svg" xmlns:xlink="http://www.w3.org/1999/xlink" x="0px" y="0px"
	 viewBox="0 0 200 32.94" style="enable-background:new 0 0 200 32.94;" xml:space="preserve">
<style type="text/css">
	.st0{fill:url(#SVGID_1_);}
	.st1{fill:#FFFFFF;}
	.st2{fill:url(#SVGID_00000040575289496370469590000011088977303584427649_);}
	.st3{fill:#0D1321;}
</style>
<g>
	<linearGradient id="SVGID_1_" gradientUnits="userSpaceOnUse" x1="-9.094947e-13" y1="15.7329" x2="50.8247" y2="15.7329">
		<stop  offset="0" style="stop-color:#0069FF"/>
		<stop  offset="1" style="stop-color:#64E9FF"/>
	</linearGradient>
	<path class="st0" d="M50.82,15.73c0,5.59-3.79,10.29-8.93,11.69c-0.05-0.11-0.11-0.22-0.21-0.31l-2.56-2.56
		c1.4-0.07,2.77-0.45,3.99-1.16c1.34-0.78,2.46-1.89,3.24-3.24c0.77-1.34,1.18-2.87,1.18-4.42c0-1.55-0.41-3.08-1.19-4.42
		c-0.31-0.53-0.98-0.71-1.51-0.4c-0.53,0.31-0.71,0.98-0.4,1.51c0.58,1.01,0.89,2.15,0.89,3.32c0,1.16-0.31,2.31-0.89,3.32
		c-0.58,1.01-1.42,1.85-2.43,2.43c-0.87,0.5-1.84,0.78-2.83,0.86l2.5-2.5c0.43-0.43,0.43-1.13,0-1.56c-0.43-0.43-1.13-0.43-1.56,0
		l-4.42,4.42c-0.43,0.43-0.43,1.13,0,1.56l3.58,3.58c-0.2,0.01-0.39,0.03-0.59,0.03c-2.92,0-5.6-1.03-7.7-2.76
		c1.74-2.71,2.77-5.92,2.77-9.38c0-3.45-1.02-6.67-2.77-9.38c2.09-1.72,4.78-2.76,7.7-2.76C45.39,3.6,50.82,9.03,50.82,15.73z
		 M15.73,0c-0.26,0-0.51,0.03-0.76,0.04l4.64,4.64c0.56,0.56,0.56,1.47,0,2.03l-5.74,5.74c-0.28,0.28-0.65,0.42-1.01,0.42
		c-0.37,0-0.73-0.14-1.01-0.42c-0.56-0.56-0.56-1.47,0-2.03l3.25-3.25c-1.29,0.1-2.54,0.46-3.67,1.11c-1.31,0.75-2.4,1.84-3.15,3.15
		c-0.75,1.31-1.15,2.79-1.15,4.3c0,1.51,0.4,3,1.15,4.3c0.4,0.69,0.16,1.56-0.53,1.96c-0.23,0.13-0.47,0.19-0.72,0.19
		c-0.5,0-0.98-0.26-1.24-0.72c-1.01-1.74-1.54-3.73-1.54-5.74c0-2.01,0.53-3.99,1.54-5.74c1-1.74,2.46-3.19,4.2-4.2
		c1.58-0.91,3.36-1.41,5.18-1.5l-3.32-3.32c-0.12-0.12-0.2-0.26-0.27-0.4C4.91,2.39,0,8.48,0,15.73c0,8.69,7.04,15.73,15.73,15.73
		c8.69,0,15.73-7.04,15.73-15.73C31.47,7.04,24.42,0,15.73,0z"/>
	<g>
		<path class="st1" d="M82.39,10.83c-1.22-0.71-2.67-1.06-4.35-1.06c-1.68,0-3.13,0.37-4.36,1.1c-1.23,0.73-2.19,1.77-2.87,3.11
			c-0.68,1.34-1.02,2.92-1.02,4.75v0.02c0,1.83,0.34,3.41,1.02,4.74c0.68,1.33,1.65,2.36,2.91,3.08c1.26,0.72,2.77,1.08,4.52,1.08
			c1.23,0,2.3-0.16,3.21-0.48c0.91-0.32,1.69-0.75,2.32-1.28c0.64-0.53,1.14-1.12,1.51-1.76c0.37-0.64,0.62-1.28,0.75-1.91
			l0.05-0.18h-4.29l-0.03,0.1c-0.11,0.32-0.31,0.64-0.61,0.94c-0.3,0.31-0.68,0.57-1.15,0.77c-0.47,0.2-1.02,0.3-1.67,0.3
			c-0.81,0-1.51-0.18-2.1-0.54c-0.59-0.36-1.04-0.87-1.35-1.55c-0.29-0.63-0.45-1.38-0.46-2.24h11.81v-1.46c0-1.73-0.33-3.24-1-4.53
			C84.56,12.54,83.62,11.54,82.39,10.83z M74.47,16.86c0.07-0.57,0.2-1.09,0.41-1.53c0.31-0.68,0.75-1.19,1.31-1.55
			c0.56-0.35,1.2-0.53,1.93-0.53c0.73,0,1.36,0.17,1.91,0.51c0.55,0.34,0.98,0.85,1.29,1.53c0.2,0.45,0.33,0.97,0.4,1.56H74.47z
			 M105.96,6.07c0-1.27,1.03-2.3,2.3-2.3s2.3,1.03,2.3,2.3s-1.03,2.3-2.3,2.3S105.96,7.34,105.96,6.07z M116.3,6.07
			c0-1.27,1.03-2.3,2.3-2.3s2.3,1.03,2.3,2.3s-1.03,2.3-2.3,2.3S116.3,7.34,116.3,6.07z M64.94,10.12h3.14v3.52h-3.14v8.33
			c0,0.8,0.18,1.36,0.54,1.67c0.36,0.32,0.89,0.47,1.59,0.47c0.21,0,0.4-0.01,0.56-0.02c0.16-0.02,0.31-0.03,0.45-0.06v3.43
			c-0.26,0.04-0.57,0.08-0.95,0.12c-0.38,0.04-0.81,0.06-1.31,0.06c-1.9,0-3.31-0.4-4.23-1.2c-0.92-0.8-1.38-2.12-1.38-3.96v-8.84
			h-2.39v-3.52h2.39v-4.2h4.72V10.12z M144.52,17.32c0.5,0.86,0.74,1.89,0.74,3.1v0.02c0,1.48-0.37,2.77-1.11,3.85
			c-0.74,1.08-1.81,1.92-3.2,2.51s-3.06,0.89-5,0.89c-1.83,0-3.42-0.27-4.78-0.81c-1.36-0.54-2.43-1.31-3.22-2.32
			c-0.78-1.01-1.22-2.22-1.31-3.64l-0.02-0.26h4.56l0.03,0.18c0.11,0.6,0.38,1.11,0.81,1.55s1,0.77,1.69,1.01
			c0.69,0.24,1.48,0.36,2.35,0.36c0.9,0,1.67-0.12,2.31-0.36c0.65-0.24,1.15-0.58,1.5-1.02c0.35-0.44,0.53-0.96,0.53-1.55V20.8
			c0-0.78-0.31-1.39-0.92-1.83c-0.61-0.44-1.64-0.81-3.07-1.1l-2.43-0.5c-2.27-0.45-3.99-1.22-5.15-2.31
			c-1.16-1.09-1.74-2.51-1.74-4.25v-0.02c0.01-1.41,0.39-2.64,1.15-3.68c0.76-1.05,1.8-1.86,3.12-2.45
			c1.32-0.59,2.84-0.88,4.55-0.88c1.78,0,3.32,0.28,4.62,0.84c1.3,0.56,2.31,1.35,3.03,2.35c0.73,1.01,1.13,2.19,1.2,3.55l0.02,0.29
			h-4.56l-0.03-0.19c-0.07-0.61-0.3-1.13-0.68-1.55c-0.38-0.43-0.87-0.76-1.48-0.99c-0.61-0.23-1.31-0.35-2.11-0.35
			c-0.82,0-1.53,0.12-2.13,0.35c-0.6,0.23-1.05,0.56-1.37,0.98c-0.32,0.42-0.47,0.9-0.47,1.45v0.02c0,0.74,0.31,1.33,0.93,1.77
			c0.62,0.44,1.59,0.8,2.91,1.07l2.45,0.5c1.61,0.32,2.94,0.76,3.97,1.33C143.25,15.75,144.02,16.46,144.52,17.32z M200,20.95v0.1
			c-0.07,1.25-0.44,2.37-1.09,3.36c-0.65,0.99-1.55,1.78-2.68,2.36c-1.14,0.58-2.47,0.87-4,0.87c-1.74,0-3.25-0.36-4.52-1.09
			c-1.27-0.73-2.25-1.76-2.94-3.1c-0.69-1.34-1.03-2.93-1.03-4.76v-0.02c0-1.84,0.35-3.42,1.04-4.75c0.69-1.33,1.67-2.35,2.94-3.07
			c1.27-0.72,2.75-1.08,4.46-1.08c1.56,0,2.91,0.29,4.05,0.87c1.14,0.58,2.04,1.37,2.68,2.36c0.65,0.99,1,2.11,1.07,3.35v0.11h-4.36
			l-0.02-0.14c-0.14-0.81-0.49-1.49-1.06-2.05c-0.57-0.56-1.33-0.83-2.31-0.83c-0.76,0-1.42,0.21-1.98,0.63
			c-0.56,0.42-0.99,1.02-1.3,1.81c-0.3,0.78-0.46,1.72-0.46,2.81v0.02c0,1.12,0.15,2.07,0.46,2.86c0.3,0.78,0.74,1.38,1.3,1.79
			c0.56,0.41,1.23,0.62,1.99,0.62c0.94,0,1.7-0.26,2.27-0.79c0.57-0.53,0.93-1.23,1.08-2.09l0.03-0.14H200z M179.88,11.47
			c1.03,1.14,1.55,2.71,1.55,4.73v11.08h-4.68V17.18c0-1.12-0.26-1.99-0.79-2.61c-0.53-0.62-1.32-0.93-2.36-0.93
			c-0.69,0-1.3,0.16-1.81,0.48c-0.51,0.32-0.91,0.76-1.19,1.33c-0.28,0.57-0.42,1.22-0.42,1.97v9.87h-4.68V10.12h4.68v2.82h0.1
			c0.45-0.98,1.11-1.76,1.99-2.32c0.88-0.57,1.96-0.85,3.25-0.85C177.39,9.77,178.85,10.34,179.88,11.47z M158.91,10.12h4.95
			l-5.89,17.47c-0.45,1.35-1.01,2.41-1.69,3.2c-0.68,0.78-1.49,1.34-2.44,1.67c-0.95,0.33-2.06,0.49-3.33,0.49
			c-0.46,0-0.9-0.02-1.33-0.06c-0.43-0.04-0.78-0.09-1.06-0.14v-3.48c0.16,0.03,0.38,0.07,0.65,0.1c0.27,0.04,0.58,0.06,0.92,0.06
			c0.7,0,1.26-0.12,1.67-0.35c0.41-0.23,0.71-0.64,0.91-1.22l0.19-0.56l-6.05-17.17h5.14l3.62,13.42h0.13L158.91,10.12z
			 M124.14,15.55v11.74h-4.68V16.73c0-0.67-0.11-1.24-0.33-1.69c-0.22-0.45-0.53-0.8-0.94-1.04c-0.41-0.24-0.92-0.36-1.53-0.36
			c-0.59,0-1.1,0.14-1.55,0.41c-0.44,0.27-0.79,0.65-1.03,1.13c-0.25,0.48-0.37,1.04-0.37,1.68v10.43h-4.5v-10.7
			c0-0.62-0.11-1.15-0.34-1.59c-0.22-0.44-0.54-0.77-0.95-1.01c-0.41-0.23-0.9-0.35-1.48-0.35c-0.48,0-0.92,0.1-1.31,0.3
			c-0.17-0.79-0.47-1.52-0.89-2.2c0.31-0.42,0.68-0.78,1.12-1.09c0.85-0.59,1.85-0.88,3-0.88c0.8,0,1.52,0.14,2.16,0.42
			c0.64,0.28,1.18,0.68,1.63,1.2c0.44,0.52,0.76,1.16,0.94,1.92h0.1c0.26-0.73,0.64-1.35,1.16-1.88c0.52-0.53,1.13-0.94,1.84-1.23
			c0.71-0.29,1.49-0.43,2.33-0.43c1.12,0,2.1,0.24,2.95,0.72c0.84,0.48,1.5,1.15,1.97,2.02C123.9,13.37,124.14,14.39,124.14,15.55z
			 M103.57,15.5c0-0.62-0.09-1.2-0.26-1.73c0,0,0,0.01,0,0.01c-0.15-0.46-0.36-0.89-0.64-1.29c-0.6-0.86-1.45-1.53-2.54-2.01
			c-1.09-0.47-2.38-0.71-3.86-0.71c-1.51,0-2.81,0.23-3.9,0.7c-1.09,0.46-1.95,1.11-2.56,1.93c-0.61,0.82-0.97,1.76-1.07,2.82
			l-0.02,0.19h4.29l0.03-0.14c0.12-0.56,0.43-1.01,0.94-1.37c0.51-0.36,1.21-0.54,2.08-0.54c0.92,0,1.62,0.22,2.1,0.66
			c0.48,0.44,0.72,1.04,0.72,1.79v1.05l-4.24,0.26c-1.42,0.1-2.63,0.36-3.63,0.78c-1,0.43-1.76,1.01-2.28,1.75
			c-0.52,0.74-0.78,1.64-0.78,2.68v0.03c0,1,0.24,1.9,0.73,2.68c0.49,0.78,1.16,1.4,2.03,1.84c0.87,0.44,1.88,0.66,3.02,0.66
			c0.75,0,1.44-0.11,2.09-0.34c0.65-0.22,1.22-0.55,1.72-0.98c0.5-0.43,0.92-0.93,1.25-1.51h0.1v2.55h4.68V15.96c0,0,0,0,0,0V15.5z
			 M98.9,21.03c0,0.59-0.16,1.12-0.47,1.59c-0.32,0.48-0.75,0.85-1.3,1.12c-0.55,0.27-1.17,0.41-1.87,0.41
			c-0.81,0-1.46-0.18-1.94-0.54c-0.48-0.36-0.72-0.85-0.72-1.48V22.1c0-0.61,0.23-1.09,0.7-1.46c0.47-0.36,1.15-0.57,2.05-0.62
			l3.54-0.24V21.03z"/>
	</g>
</g>
</svg>
